<mxfile host="Electron" modified="2024-03-07T12:29:38.084Z" agent="Mozilla/5.0 (Windows NT 10.0; Win64; x64) AppleWebKit/537.36 (KHTML, like Gecko) draw.io/23.1.5 Chrome/120.0.6099.109 Electron/28.1.0 Safari/537.36" etag="FyDXvTf_TqUCITRLwp6h" version="23.1.5" type="device">
  <diagram id="v4GbL-y0wHvv7A9MXYYU" name="Page-1">
    <mxGraphModel dx="1434" dy="844" grid="1" gridSize="10" guides="1" tooltips="1" connect="1" arrows="1" fold="1" page="1" pageScale="1" pageWidth="1920" pageHeight="1200" math="0" shadow="0">
      <root>
        <mxCell id="0" />
        <mxCell id="1" parent="0" />
        <mxCell id="COeCRm81-DaRanPmge2q-27" value="" style="rounded=0;whiteSpace=wrap;html=1;fontSize=25;fillColor=#f5f5f5;fontColor=#333333;strokeColor=#666666;direction=east;strokeWidth=2;fontStyle=1" parent="1" vertex="1">
          <mxGeometry x="40" y="300" width="1280" height="910" as="geometry" />
        </mxCell>
        <mxCell id="PHOMeu67KFhAlpCVhWh9-151" value="" style="rounded=0;whiteSpace=wrap;html=1;fontSize=23;strokeWidth=2;" parent="1" vertex="1">
          <mxGeometry x="60" y="830" width="1240" height="350" as="geometry" />
        </mxCell>
        <mxCell id="COeCRm81-DaRanPmge2q-25" value="" style="rounded=0;whiteSpace=wrap;html=1;fontSize=23;strokeWidth=2;" parent="1" vertex="1">
          <mxGeometry x="60" y="630" width="1240" height="200" as="geometry" />
        </mxCell>
        <mxCell id="COeCRm81-DaRanPmge2q-24" value="" style="rounded=0;whiteSpace=wrap;html=1;fontSize=23;strokeWidth=2;" parent="1" vertex="1">
          <mxGeometry x="60" y="490" width="1240" height="140" as="geometry" />
        </mxCell>
        <mxCell id="COeCRm81-DaRanPmge2q-23" value="" style="rounded=0;whiteSpace=wrap;html=1;fontSize=23;strokeWidth=2;" parent="1" vertex="1">
          <mxGeometry x="60" y="350" width="1240" height="140" as="geometry" />
        </mxCell>
        <mxCell id="PHOMeu67KFhAlpCVhWh9-154" style="edgeStyle=orthogonalEdgeStyle;rounded=0;orthogonalLoop=1;jettySize=auto;html=1;exitX=0.5;exitY=1;exitDx=0;exitDy=0;strokeColor=#00CC00;fontStyle=1;strokeWidth=2;" parent="1" source="G9IXzb2CrkxLNeP_G2im-1" target="COeCRm81-DaRanPmge2q-6" edge="1">
          <mxGeometry relative="1" as="geometry" />
        </mxCell>
        <mxCell id="G9IXzb2CrkxLNeP_G2im-1" value="SUBMIT ACKNOWLEDGE-MENT LETTER AND WITH RID" style="rounded=0;whiteSpace=wrap;html=1;fontStyle=1;strokeWidth=2;" parent="1" vertex="1">
          <mxGeometry x="360" y="410" width="130" height="70" as="geometry" />
        </mxCell>
        <mxCell id="COeCRm81-DaRanPmge2q-13" style="edgeStyle=orthogonalEdgeStyle;rounded=0;orthogonalLoop=1;jettySize=auto;html=1;exitX=1;exitY=0.5;exitDx=0;exitDy=0;strokeColor=#00CC00;fontStyle=1;strokeWidth=2;" parent="1" source="COeCRm81-DaRanPmge2q-1" target="COeCRm81-DaRanPmge2q-4" edge="1">
          <mxGeometry relative="1" as="geometry">
            <Array as="points">
              <mxPoint x="870" y="436" />
            </Array>
          </mxGeometry>
        </mxCell>
        <mxCell id="COeCRm81-DaRanPmge2q-1" value="SELECTS DESIRED APPOINTMENT CENTER TIME" style="rounded=0;whiteSpace=wrap;html=1;fontStyle=1;strokeWidth=2;shape=parallelogram;perimeter=parallelogramPerimeter;fixedSize=1;" parent="1" vertex="1">
          <mxGeometry x="670" y="403" width="140" height="65" as="geometry" />
        </mxCell>
        <mxCell id="PHOMeu67KFhAlpCVhWh9-172" style="edgeStyle=orthogonalEdgeStyle;rounded=0;orthogonalLoop=1;jettySize=auto;html=1;exitX=0.5;exitY=1;exitDx=0;exitDy=0;entryX=0.5;entryY=0;entryDx=0;entryDy=0;strokeColor=#00CC00;fontStyle=1;strokeWidth=2;" parent="1" source="COeCRm81-DaRanPmge2q-2" target="PHOMeu67KFhAlpCVhWh9-174" edge="1">
          <mxGeometry relative="1" as="geometry" />
        </mxCell>
        <mxCell id="COeCRm81-DaRanPmge2q-2" value="CHECKS AVAILABILITY OF CENTER AND TIME FOR BIOMETRIC&amp;nbsp; COLLECTION APPOINTMENT" style="rounded=0;whiteSpace=wrap;html=1;fontStyle=1;strokeWidth=2;" parent="1" vertex="1">
          <mxGeometry x="510" y="515" width="137.5" height="75" as="geometry" />
        </mxCell>
        <mxCell id="COeCRm81-DaRanPmge2q-14" style="edgeStyle=orthogonalEdgeStyle;rounded=0;orthogonalLoop=1;jettySize=auto;html=1;exitX=0.5;exitY=0;exitDx=0;exitDy=0;strokeColor=#00CC00;fontStyle=1;strokeWidth=2;" parent="1" source="COeCRm81-DaRanPmge2q-3" target="COeCRm81-DaRanPmge2q-7" edge="1">
          <mxGeometry relative="1" as="geometry" />
        </mxCell>
        <mxCell id="COeCRm81-DaRanPmge2q-3" value="PRINTS APPOINTMENT CONFIRMATION LETTER WITH RID" style="rounded=0;whiteSpace=wrap;html=1;fontStyle=1;strokeWidth=2;" parent="1" vertex="1">
          <mxGeometry x="939.75" y="524" width="115" height="60" as="geometry" />
        </mxCell>
        <mxCell id="COeCRm81-DaRanPmge2q-15" style="edgeStyle=orthogonalEdgeStyle;rounded=0;orthogonalLoop=1;jettySize=auto;html=1;exitX=0.5;exitY=1;exitDx=0;exitDy=0;entryX=0.5;entryY=0;entryDx=0;entryDy=0;strokeColor=#00CC00;fontStyle=1;strokeWidth=2;" parent="1" source="6epNkEEEGoFFJ64g-tKx-1" target="COeCRm81-DaRanPmge2q-8" edge="1">
          <mxGeometry relative="1" as="geometry" />
        </mxCell>
        <mxCell id="COeCRm81-DaRanPmge2q-4" value="CONFIRMS SELECTED APPOINTMENT CENTER AND TIME" style="rounded=0;whiteSpace=wrap;html=1;fontStyle=1;strokeWidth=2;" parent="1" vertex="1">
          <mxGeometry x="810" y="522.5" width="120" height="60" as="geometry" />
        </mxCell>
        <mxCell id="COeCRm81-DaRanPmge2q-12" style="edgeStyle=orthogonalEdgeStyle;rounded=0;orthogonalLoop=1;jettySize=auto;html=1;exitX=1;exitY=0.5;exitDx=0;exitDy=0;strokeColor=#00CC00;fontStyle=1;strokeWidth=2;" parent="1" source="COeCRm81-DaRanPmge2q-5" target="COeCRm81-DaRanPmge2q-1" edge="1">
          <mxGeometry relative="1" as="geometry" />
        </mxCell>
        <mxCell id="COeCRm81-DaRanPmge2q-5" value="NOTIFIES AVAILABLE APPOINTMENTS" style="rounded=0;whiteSpace=wrap;html=1;fontStyle=1;strokeWidth=2;" parent="1" vertex="1">
          <mxGeometry x="520" y="984" width="120" height="60" as="geometry" />
        </mxCell>
        <mxCell id="PHOMeu67KFhAlpCVhWh9-166" style="edgeStyle=orthogonalEdgeStyle;rounded=0;orthogonalLoop=1;jettySize=auto;html=1;exitX=0.5;exitY=1;exitDx=0;exitDy=0;strokeColor=#00CC00;fontStyle=1;strokeWidth=2;entryX=0.5;entryY=0;entryDx=0;entryDy=0;" parent="1" source="COeCRm81-DaRanPmge2q-6" target="PHOMeu67KFhAlpCVhWh9-87" edge="1">
          <mxGeometry relative="1" as="geometry">
            <Array as="points">
              <mxPoint x="425" y="700" />
              <mxPoint x="340" y="700" />
            </Array>
          </mxGeometry>
        </mxCell>
        <mxCell id="COeCRm81-DaRanPmge2q-6" value="RECEIVES ACKNOWLEDGEMENT LETTER WITH RID FOR APPOINTMENT BOOKING" style="rounded=0;whiteSpace=wrap;html=1;fontStyle=1;strokeWidth=2;" parent="1" vertex="1">
          <mxGeometry x="360" y="510.5" width="130" height="80" as="geometry" />
        </mxCell>
        <mxCell id="PHOMeu67KFhAlpCVhWh9-195" style="edgeStyle=orthogonalEdgeStyle;rounded=0;orthogonalLoop=1;jettySize=auto;html=1;exitX=1;exitY=0.5;exitDx=0;exitDy=0;strokeColor=#00CC00;fontStyle=1;strokeWidth=2;" parent="1" source="COeCRm81-DaRanPmge2q-7" target="PHOMeu67KFhAlpCVhWh9-185" edge="1">
          <mxGeometry relative="1" as="geometry" />
        </mxCell>
        <mxCell id="COeCRm81-DaRanPmge2q-7" value="RECEIVES APPOINTMENT CONFIRMATION LETTER&amp;nbsp;" style="rounded=0;whiteSpace=wrap;html=1;fontStyle=1;strokeWidth=2;" parent="1" vertex="1">
          <mxGeometry x="940" y="405.5" width="115" height="60" as="geometry" />
        </mxCell>
        <mxCell id="COeCRm81-DaRanPmge2q-17" value="OB.1.3" style="text;html=1;align=center;verticalAlign=middle;resizable=0;points=[];autosize=1;strokeColor=none;fillColor=none;fontSize=23;fontStyle=1;strokeWidth=2;" parent="1" vertex="1">
          <mxGeometry x="600" y="310" width="100" height="40" as="geometry" />
        </mxCell>
        <mxCell id="COeCRm81-DaRanPmge2q-18" value="OFFLINE BIOMETRIC COLLECTION: APPOINTMENT" style="text;html=1;align=right;verticalAlign=middle;resizable=0;points=[];autosize=1;strokeColor=none;fillColor=none;fontSize=23;fontStyle=1;strokeWidth=2;" parent="1" vertex="1">
          <mxGeometry x="710" y="310" width="590" height="40" as="geometry" />
        </mxCell>
        <mxCell id="COeCRm81-DaRanPmge2q-19" value="ADMINISTRATOR" style="text;html=1;align=center;verticalAlign=middle;resizable=0;points=[];autosize=1;strokeColor=none;fillColor=none;fontSize=14;fontStyle=1;strokeWidth=2;horizontal=0;" parent="1" vertex="1">
          <mxGeometry x="60" y="495" width="40" height="130" as="geometry" />
        </mxCell>
        <mxCell id="COeCRm81-DaRanPmge2q-21" value="APPLICANT&lt;br style=&quot;font-size: 14px;&quot;&gt;PARENT/GUADIAN&lt;br style=&quot;font-size: 14px;&quot;&gt;INTRODUCER" style="text;html=1;align=center;verticalAlign=middle;resizable=0;points=[];autosize=1;strokeColor=none;fillColor=none;fontSize=14;fontStyle=1;strokeWidth=2;horizontal=0;" parent="1" vertex="1">
          <mxGeometry x="60" y="350" width="70" height="140" as="geometry" />
        </mxCell>
        <mxCell id="COeCRm81-DaRanPmge2q-22" value="E" style="ellipse;whiteSpace=wrap;html=1;aspect=fixed;fontSize=28;fontColor=default;strokeWidth=2;fontStyle=1" parent="1" vertex="1">
          <mxGeometry x="60" y="313" width="34" height="34" as="geometry" />
        </mxCell>
        <mxCell id="whh6OcE5DLhpEhYFIGRC-3" style="edgeStyle=orthogonalEdgeStyle;rounded=0;orthogonalLoop=1;jettySize=auto;html=1;exitX=0.5;exitY=1;exitDx=0;exitDy=0;exitPerimeter=0;entryX=0.5;entryY=0;entryDx=0;entryDy=0;strokeColor=#00CC00;fontStyle=1;strokeWidth=2;" parent="1" source="whh6OcE5DLhpEhYFIGRC-1" target="whh6OcE5DLhpEhYFIGRC-2" edge="1">
          <mxGeometry relative="1" as="geometry" />
        </mxCell>
        <mxCell id="whh6OcE5DLhpEhYFIGRC-1" value="&lt;b&gt;START&lt;/b&gt;" style="strokeWidth=2;html=1;shape=mxgraph.flowchart.terminator;whiteSpace=wrap;fillColor=#d5e8d4;strokeColor=#82b366;" parent="1" vertex="1">
          <mxGeometry x="210" y="360" width="100" height="40" as="geometry" />
        </mxCell>
        <mxCell id="whh6OcE5DLhpEhYFIGRC-4" style="edgeStyle=orthogonalEdgeStyle;rounded=0;orthogonalLoop=1;jettySize=auto;html=1;exitX=1;exitY=0.5;exitDx=0;exitDy=0;entryX=0;entryY=0.5;entryDx=0;entryDy=0;strokeColor=#00CC00;fontStyle=1;strokeWidth=2;" parent="1" source="whh6OcE5DLhpEhYFIGRC-2" target="G9IXzb2CrkxLNeP_G2im-1" edge="1">
          <mxGeometry relative="1" as="geometry" />
        </mxCell>
        <mxCell id="whh6OcE5DLhpEhYFIGRC-2" value="APPROACH THE BOOKING COUNTER ATTENDANT" style="rounded=0;whiteSpace=wrap;html=1;fontStyle=1;strokeWidth=2;" parent="1" vertex="1">
          <mxGeometry x="190" y="420" width="140" height="50" as="geometry" />
        </mxCell>
        <mxCell id="PHOMeu67KFhAlpCVhWh9-58" value="PUBLIC NETWORK&lt;br style=&quot;border-color: var(--border-color);&quot;&gt;SYSTEMS (CLIENT)" style="text;html=1;align=center;verticalAlign=middle;resizable=0;points=[];autosize=1;strokeColor=none;fillColor=none;fontStyle=1;fontSize=14;strokeWidth=2;horizontal=0;" parent="1" vertex="1">
          <mxGeometry x="45" y="660" width="70" height="190" as="geometry" />
        </mxCell>
        <mxCell id="PHOMeu67KFhAlpCVhWh9-66" value="&lt;font style=&quot;font-size: 14px;&quot;&gt;LEGEND&lt;/font&gt;" style="swimlane;whiteSpace=wrap;html=1;" parent="1" vertex="1">
          <mxGeometry x="1320" y="352.5" width="200" height="230" as="geometry" />
        </mxCell>
        <mxCell id="PHOMeu67KFhAlpCVhWh9-67" value="KM" style="ellipse;whiteSpace=wrap;html=1;fillColor=#dae8fc;strokeColor=#6c8ebf;gradientColor=#7ea6e0;fontStyle=1" parent="PHOMeu67KFhAlpCVhWh9-66" vertex="1">
          <mxGeometry x="10" y="30" width="30" height="26" as="geometry" />
        </mxCell>
        <mxCell id="PHOMeu67KFhAlpCVhWh9-68" value="IDA" style="ellipse;whiteSpace=wrap;html=1;fillColor=#dae8fc;strokeColor=#6c8ebf;gradientColor=#7ea6e0;fontStyle=1" parent="PHOMeu67KFhAlpCVhWh9-66" vertex="1">
          <mxGeometry x="10" y="131" width="30" height="26" as="geometry" />
        </mxCell>
        <mxCell id="PHOMeu67KFhAlpCVhWh9-69" value="HSM" style="ellipse;whiteSpace=wrap;html=1;fillColor=#dae8fc;strokeColor=#6c8ebf;gradientColor=#7ea6e0;fontStyle=1" parent="PHOMeu67KFhAlpCVhWh9-66" vertex="1">
          <mxGeometry x="10" y="91" width="30" height="26" as="geometry" />
        </mxCell>
        <mxCell id="PHOMeu67KFhAlpCVhWh9-70" value="KR" style="ellipse;whiteSpace=wrap;html=1;fillColor=#dae8fc;strokeColor=#6c8ebf;gradientColor=#7ea6e0;fontStyle=1" parent="PHOMeu67KFhAlpCVhWh9-66" vertex="1">
          <mxGeometry x="10" y="59" width="30" height="26" as="geometry" />
        </mxCell>
        <mxCell id="PHOMeu67KFhAlpCVhWh9-71" value="Key Manager" style="text;html=1;strokeColor=none;fillColor=none;align=center;verticalAlign=middle;whiteSpace=wrap;rounded=0;fontSize=14;" parent="PHOMeu67KFhAlpCVhWh9-66" vertex="1">
          <mxGeometry x="40" y="30" width="160" height="28" as="geometry" />
        </mxCell>
        <mxCell id="PHOMeu67KFhAlpCVhWh9-72" value="Key Revocation" style="text;html=1;strokeColor=none;fillColor=none;align=center;verticalAlign=middle;whiteSpace=wrap;rounded=0;fontSize=14;" parent="PHOMeu67KFhAlpCVhWh9-66" vertex="1">
          <mxGeometry x="40" y="58" width="160" height="28" as="geometry" />
        </mxCell>
        <mxCell id="PHOMeu67KFhAlpCVhWh9-73" value="Hardware Security Module" style="text;html=1;strokeColor=none;fillColor=none;align=center;verticalAlign=middle;whiteSpace=wrap;rounded=0;fontSize=14;" parent="PHOMeu67KFhAlpCVhWh9-66" vertex="1">
          <mxGeometry x="40" y="90" width="160" height="28" as="geometry" />
        </mxCell>
        <mxCell id="PHOMeu67KFhAlpCVhWh9-74" value="ID Authentication (DB)" style="text;html=1;strokeColor=none;fillColor=none;align=center;verticalAlign=middle;whiteSpace=wrap;rounded=0;fontSize=14;" parent="PHOMeu67KFhAlpCVhWh9-66" vertex="1">
          <mxGeometry x="40" y="130" width="160" height="28" as="geometry" />
        </mxCell>
        <mxCell id="PHOMeu67KFhAlpCVhWh9-75" value="AC" style="ellipse;whiteSpace=wrap;html=1;fillColor=#dae8fc;strokeColor=#6c8ebf;gradientColor=#7ea6e0;fontStyle=1" parent="PHOMeu67KFhAlpCVhWh9-66" vertex="1">
          <mxGeometry x="10" y="161" width="30" height="26" as="geometry" />
        </mxCell>
        <mxCell id="PHOMeu67KFhAlpCVhWh9-76" value="Access Control" style="text;html=1;strokeColor=none;fillColor=none;align=center;verticalAlign=middle;whiteSpace=wrap;rounded=0;fontSize=14;" parent="PHOMeu67KFhAlpCVhWh9-66" vertex="1">
          <mxGeometry x="40" y="160" width="160" height="28" as="geometry" />
        </mxCell>
        <mxCell id="PHOMeu67KFhAlpCVhWh9-77" value="Certificate Authority" style="text;html=1;strokeColor=none;fillColor=none;align=center;verticalAlign=middle;whiteSpace=wrap;rounded=0;fontSize=14;" parent="PHOMeu67KFhAlpCVhWh9-66" vertex="1">
          <mxGeometry x="40" y="190" width="160" height="28" as="geometry" />
        </mxCell>
        <mxCell id="PHOMeu67KFhAlpCVhWh9-78" value="CA" style="ellipse;whiteSpace=wrap;html=1;fillColor=#dae8fc;strokeColor=#6c8ebf;gradientColor=#7ea6e0;fontStyle=1" parent="PHOMeu67KFhAlpCVhWh9-66" vertex="1">
          <mxGeometry x="10" y="191" width="30" height="26" as="geometry" />
        </mxCell>
        <mxCell id="PHOMeu67KFhAlpCVhWh9-85" value="A/P/G/I" style="shape=umlActor;verticalLabelPosition=bottom;verticalAlign=top;html=1;outlineConnect=0;fontStyle=1" parent="1" vertex="1">
          <mxGeometry x="130" y="380" width="30" height="60" as="geometry" />
        </mxCell>
        <mxCell id="PHOMeu67KFhAlpCVhWh9-86" value="" style="group" parent="1" vertex="1" connectable="0">
          <mxGeometry x="250" y="716" width="150" height="78" as="geometry" />
        </mxCell>
        <mxCell id="PHOMeu67KFhAlpCVhWh9-87" value="MASK &amp;amp; ENCRYPT APPLICATION DETAILS&amp;nbsp;" style="rounded=0;whiteSpace=wrap;html=1;fontStyle=1;strokeWidth=2;" parent="PHOMeu67KFhAlpCVhWh9-86" vertex="1">
          <mxGeometry x="30" y="9" width="120" height="60" as="geometry" />
        </mxCell>
        <mxCell id="PHOMeu67KFhAlpCVhWh9-88" value="CA" style="ellipse;whiteSpace=wrap;html=1;fillColor=#dae8fc;strokeColor=#6c8ebf;gradientColor=#7ea6e0;fontStyle=1" parent="PHOMeu67KFhAlpCVhWh9-86" vertex="1">
          <mxGeometry y="52" width="30" height="26" as="geometry" />
        </mxCell>
        <mxCell id="PHOMeu67KFhAlpCVhWh9-89" value="HSM" style="ellipse;whiteSpace=wrap;html=1;fillColor=#dae8fc;strokeColor=#6c8ebf;gradientColor=#7ea6e0;fontStyle=1" parent="PHOMeu67KFhAlpCVhWh9-86" vertex="1">
          <mxGeometry y="26" width="30" height="26" as="geometry" />
        </mxCell>
        <mxCell id="PHOMeu67KFhAlpCVhWh9-90" value="KM" style="ellipse;whiteSpace=wrap;html=1;fillColor=#dae8fc;strokeColor=#6c8ebf;gradientColor=#7ea6e0;fontStyle=1" parent="PHOMeu67KFhAlpCVhWh9-86" vertex="1">
          <mxGeometry width="30" height="26" as="geometry" />
        </mxCell>
        <mxCell id="PHOMeu67KFhAlpCVhWh9-59" value="PRIVATE NETWORK SYSTEMS (SERVER)" style="text;html=1;align=center;verticalAlign=middle;resizable=0;points=[];autosize=1;strokeColor=none;fillColor=none;fontStyle=1;fontSize=14;strokeWidth=2;horizontal=0;" parent="1" vertex="1">
          <mxGeometry x="50" y="890" width="40" height="290" as="geometry" />
        </mxCell>
        <mxCell id="PHOMeu67KFhAlpCVhWh9-153" value="ADMIN" style="shape=umlActor;verticalLabelPosition=bottom;verticalAlign=top;html=1;outlineConnect=0;fontStyle=1" parent="1" vertex="1">
          <mxGeometry x="130" y="520" width="30" height="60" as="geometry" />
        </mxCell>
        <mxCell id="PHOMeu67KFhAlpCVhWh9-155" value="&lt;font style=&quot;font-size: 14px;&quot;&gt;PUBLIC NETWORK&lt;/font&gt;" style="swimlane;whiteSpace=wrap;html=1;" parent="1" vertex="1">
          <mxGeometry x="1320" y="685" width="200" height="167" as="geometry" />
        </mxCell>
        <mxCell id="PHOMeu67KFhAlpCVhWh9-156" value="DNS SERVERS" style="text;html=1;strokeColor=none;fillColor=none;align=center;verticalAlign=middle;whiteSpace=wrap;rounded=0;fontSize=14;" parent="PHOMeu67KFhAlpCVhWh9-155" vertex="1">
          <mxGeometry y="27" width="200" height="28" as="geometry" />
        </mxCell>
        <mxCell id="PHOMeu67KFhAlpCVhWh9-157" value="FTP SERVERS" style="text;html=1;strokeColor=none;fillColor=none;align=center;verticalAlign=middle;whiteSpace=wrap;rounded=0;fontSize=14;" parent="PHOMeu67KFhAlpCVhWh9-155" vertex="1">
          <mxGeometry y="55" width="200" height="28" as="geometry" />
        </mxCell>
        <mxCell id="PHOMeu67KFhAlpCVhWh9-158" value="MAIL SERVERS" style="text;html=1;strokeColor=none;fillColor=none;align=center;verticalAlign=middle;whiteSpace=wrap;rounded=0;fontSize=14;" parent="PHOMeu67KFhAlpCVhWh9-155" vertex="1">
          <mxGeometry y="83" width="200" height="28" as="geometry" />
        </mxCell>
        <mxCell id="PHOMeu67KFhAlpCVhWh9-159" value="PROXY SERVERS" style="text;html=1;strokeColor=none;fillColor=none;align=center;verticalAlign=middle;whiteSpace=wrap;rounded=0;fontSize=14;" parent="PHOMeu67KFhAlpCVhWh9-155" vertex="1">
          <mxGeometry y="111" width="200" height="28" as="geometry" />
        </mxCell>
        <mxCell id="PHOMeu67KFhAlpCVhWh9-160" value="WEB SERVERS" style="text;html=1;strokeColor=none;fillColor=none;align=center;verticalAlign=middle;whiteSpace=wrap;rounded=0;fontSize=14;" parent="PHOMeu67KFhAlpCVhWh9-155" vertex="1">
          <mxGeometry y="139" width="200" height="28" as="geometry" />
        </mxCell>
        <mxCell id="PHOMeu67KFhAlpCVhWh9-169" value="RESET COUNTER" style="edgeStyle=orthogonalEdgeStyle;rounded=0;orthogonalLoop=1;jettySize=auto;html=1;exitX=1;exitY=0.5;exitDx=0;exitDy=0;entryX=0.25;entryY=1;entryDx=0;entryDy=0;strokeColor=#00CC00;fontStyle=1;strokeWidth=2;" parent="1" source="PHOMeu67KFhAlpCVhWh9-165" target="COeCRm81-DaRanPmge2q-2" edge="1">
          <mxGeometry x="-0.7112" relative="1" as="geometry">
            <Array as="points">
              <mxPoint x="420" y="955" />
              <mxPoint x="420" y="730" />
              <mxPoint x="544" y="730" />
            </Array>
            <mxPoint as="offset" />
          </mxGeometry>
        </mxCell>
        <mxCell id="PHOMeu67KFhAlpCVhWh9-180" style="edgeStyle=orthogonalEdgeStyle;rounded=0;orthogonalLoop=1;jettySize=auto;html=1;exitX=0.5;exitY=1;exitDx=0;exitDy=0;strokeColor=#FF2617;fontStyle=1;strokeWidth=2;entryX=0.5;entryY=0;entryDx=0;entryDy=0;" parent="1" source="PHOMeu67KFhAlpCVhWh9-165" target="PHOMeu67KFhAlpCVhWh9-179" edge="1">
          <mxGeometry relative="1" as="geometry" />
        </mxCell>
        <mxCell id="PHOMeu67KFhAlpCVhWh9-165" value="IF&lt;br&gt;RID &amp;amp; DETAILS&lt;br&gt;MATCH&amp;nbsp;" style="rounded=0;whiteSpace=wrap;html=1;fontStyle=1;strokeWidth=2;shape=rhombus;perimeter=rhombusPerimeter;" parent="1" vertex="1">
          <mxGeometry x="290" y="916.25" width="100" height="77.5" as="geometry" />
        </mxCell>
        <mxCell id="PHOMeu67KFhAlpCVhWh9-167" value="AC" style="ellipse;whiteSpace=wrap;html=1;fillColor=#dae8fc;strokeColor=#6c8ebf;gradientColor=#7ea6e0;fontStyle=1" parent="1" vertex="1">
          <mxGeometry x="290" y="910" width="30" height="26" as="geometry" />
        </mxCell>
        <mxCell id="PHOMeu67KFhAlpCVhWh9-173" value="" style="group" parent="1" vertex="1" connectable="0">
          <mxGeometry x="490" y="742" width="150" height="78" as="geometry" />
        </mxCell>
        <mxCell id="PHOMeu67KFhAlpCVhWh9-174" value="MASK &amp;amp; ENCRYPT APPOINTMENT DETAILS&amp;nbsp;" style="rounded=0;whiteSpace=wrap;html=1;fontStyle=1;strokeWidth=2;" parent="PHOMeu67KFhAlpCVhWh9-173" vertex="1">
          <mxGeometry x="30" y="9" width="120" height="60" as="geometry" />
        </mxCell>
        <mxCell id="PHOMeu67KFhAlpCVhWh9-175" value="CA" style="ellipse;whiteSpace=wrap;html=1;fillColor=#dae8fc;strokeColor=#6c8ebf;gradientColor=#7ea6e0;fontStyle=1" parent="PHOMeu67KFhAlpCVhWh9-173" vertex="1">
          <mxGeometry y="52" width="30" height="26" as="geometry" />
        </mxCell>
        <mxCell id="PHOMeu67KFhAlpCVhWh9-176" value="HSM" style="ellipse;whiteSpace=wrap;html=1;fillColor=#dae8fc;strokeColor=#6c8ebf;gradientColor=#7ea6e0;fontStyle=1" parent="PHOMeu67KFhAlpCVhWh9-173" vertex="1">
          <mxGeometry y="26" width="30" height="26" as="geometry" />
        </mxCell>
        <mxCell id="PHOMeu67KFhAlpCVhWh9-177" value="KM" style="ellipse;whiteSpace=wrap;html=1;fillColor=#dae8fc;strokeColor=#6c8ebf;gradientColor=#7ea6e0;fontStyle=1" parent="PHOMeu67KFhAlpCVhWh9-173" vertex="1">
          <mxGeometry width="30" height="26" as="geometry" />
        </mxCell>
        <mxCell id="PHOMeu67KFhAlpCVhWh9-181" style="edgeStyle=orthogonalEdgeStyle;rounded=0;orthogonalLoop=1;jettySize=auto;html=1;exitX=0;exitY=0.5;exitDx=0;exitDy=0;entryX=0;entryY=0.5;entryDx=0;entryDy=0;strokeColor=#00CC00;fontStyle=1;strokeWidth=2;" parent="1" source="PHOMeu67KFhAlpCVhWh9-178" target="COeCRm81-DaRanPmge2q-6" edge="1">
          <mxGeometry relative="1" as="geometry">
            <Array as="points">
              <mxPoint x="210" y="1098" />
              <mxPoint x="210" y="551" />
            </Array>
          </mxGeometry>
        </mxCell>
        <mxCell id="PHOMeu67KFhAlpCVhWh9-178" value="IF RETRY &lt;br&gt;COUNT &amp;lt;=3" style="rhombus;whiteSpace=wrap;html=1;fontStyle=1;strokeWidth=2;fontSize=11;" parent="1" vertex="1">
          <mxGeometry x="295" y="1062.81" width="90" height="70.38" as="geometry" />
        </mxCell>
        <mxCell id="YdKBBpBaXWVCjZAq3tH8-1" style="edgeStyle=orthogonalEdgeStyle;rounded=0;orthogonalLoop=1;jettySize=auto;html=1;exitX=0.5;exitY=1;exitDx=0;exitDy=0;strokeColor=#FF2617;fontStyle=1;strokeWidth=2;" parent="1" source="PHOMeu67KFhAlpCVhWh9-179" target="PHOMeu67KFhAlpCVhWh9-178" edge="1">
          <mxGeometry relative="1" as="geometry" />
        </mxCell>
        <mxCell id="PHOMeu67KFhAlpCVhWh9-179" value="EXCEPTION AND ERROR HANDLING (COUNTER)" style="rounded=0;whiteSpace=wrap;html=1;fontStyle=1;strokeWidth=2;fontSize=11;shape=label;boundedLbl=1;backgroundOutline=1;size=9.769240159254764;" parent="1" vertex="1">
          <mxGeometry x="260.5" y="1014.9999999999999" width="159" height="30" as="geometry" />
        </mxCell>
        <mxCell id="PHOMeu67KFhAlpCVhWh9-182" value="NOTIFICATION GENERATOR" style="rounded=0;whiteSpace=wrap;html=1;fontStyle=1;strokeWidth=2;fontSize=11;fillColor=default;strokeColor=default;" parent="1" vertex="1">
          <mxGeometry x="160" y="916.25" width="94.5" height="37" as="geometry" />
        </mxCell>
        <mxCell id="PHOMeu67KFhAlpCVhWh9-184" value="" style="edgeStyle=orthogonalEdgeStyle;rounded=0;orthogonalLoop=1;jettySize=auto;html=1;strokeColor=#00CC00;fontStyle=1;strokeWidth=2;" parent="1" source="PHOMeu67KFhAlpCVhWh9-185" target="PHOMeu67KFhAlpCVhWh9-186" edge="1">
          <mxGeometry relative="1" as="geometry" />
        </mxCell>
        <mxCell id="PHOMeu67KFhAlpCVhWh9-185" value="LOGS THE PROCESS AND STATUS" style="rounded=0;whiteSpace=wrap;html=1;fontStyle=1;strokeWidth=2;shape=label;boundedLbl=1;backgroundOutline=1;size=15;" parent="1" vertex="1">
          <mxGeometry x="1160" y="960" width="120" height="60" as="geometry" />
        </mxCell>
        <mxCell id="PHOMeu67KFhAlpCVhWh9-186" value="&lt;b&gt;END&lt;/b&gt;" style="strokeWidth=2;html=1;shape=mxgraph.flowchart.terminator;whiteSpace=wrap;fillColor=#f8cecc;strokeColor=#b85450;" parent="1" vertex="1">
          <mxGeometry x="1170" y="1049" width="100" height="40" as="geometry" />
        </mxCell>
        <mxCell id="PHOMeu67KFhAlpCVhWh9-187" value="IDA" style="ellipse;whiteSpace=wrap;html=1;fillColor=#dae8fc;strokeColor=#6c8ebf;gradientColor=#7ea6e0;fontStyle=1" parent="1" vertex="1">
          <mxGeometry x="1160" y="934" width="30" height="26" as="geometry" />
        </mxCell>
        <mxCell id="PHOMeu67KFhAlpCVhWh9-194" style="edgeStyle=orthogonalEdgeStyle;rounded=0;orthogonalLoop=1;jettySize=auto;html=1;exitX=1;exitY=0.5;exitDx=0;exitDy=0;strokeColor=#00CC00;fontStyle=1;strokeWidth=2;" parent="1" source="PHOMeu67KFhAlpCVhWh9-189" target="PHOMeu67KFhAlpCVhWh9-185" edge="1">
          <mxGeometry relative="1" as="geometry" />
        </mxCell>
        <mxCell id="PHOMeu67KFhAlpCVhWh9-189" value="PRINTS APPOINTMENT FAILURE LETTER WITH ERROR" style="rounded=0;whiteSpace=wrap;html=1;fontStyle=1;strokeWidth=2;" parent="1" vertex="1">
          <mxGeometry x="1067.25" y="510" width="115" height="60" as="geometry" />
        </mxCell>
        <mxCell id="PHOMeu67KFhAlpCVhWh9-190" style="edgeStyle=orthogonalEdgeStyle;rounded=0;orthogonalLoop=1;jettySize=auto;html=1;exitX=1;exitY=0.5;exitDx=0;exitDy=0;exitPerimeter=0;strokeColor=#00CC00;fontStyle=1;strokeWidth=2;" parent="1" source="COeCRm81-DaRanPmge2q-8" target="COeCRm81-DaRanPmge2q-3" edge="1">
          <mxGeometry relative="1" as="geometry" />
        </mxCell>
        <mxCell id="PHOMeu67KFhAlpCVhWh9-193" style="edgeStyle=orthogonalEdgeStyle;rounded=0;orthogonalLoop=1;jettySize=auto;html=1;exitX=0.5;exitY=0;exitDx=0;exitDy=0;exitPerimeter=0;entryX=0.5;entryY=1;entryDx=0;entryDy=0;strokeColor=#00CC00;fontStyle=1;strokeWidth=2;" parent="1" source="PHOMeu67KFhAlpCVhWh9-191" target="PHOMeu67KFhAlpCVhWh9-189" edge="1">
          <mxGeometry relative="1" as="geometry">
            <Array as="points">
              <mxPoint x="1070" y="980" />
              <mxPoint x="1125" y="980" />
            </Array>
          </mxGeometry>
        </mxCell>
        <mxCell id="PHOMeu67KFhAlpCVhWh9-191" value="&lt;span style=&quot;border-color: var(--border-color);&quot;&gt;&lt;b&gt;TERMINATE PROCESS:&lt;br&gt;&lt;/b&gt;&lt;/span&gt;WITH ERROR MESSAGE" style="strokeWidth=2;html=1;shape=mxgraph.flowchart.terminator;whiteSpace=wrap;fillColor=#f8cecc;strokeColor=#b85450;" parent="1" vertex="1">
          <mxGeometry x="990" y="1068" width="160" height="60" as="geometry" />
        </mxCell>
        <mxCell id="PHOMeu67KFhAlpCVhWh9-192" style="edgeStyle=orthogonalEdgeStyle;rounded=0;orthogonalLoop=1;jettySize=auto;html=1;exitX=1;exitY=0.5;exitDx=0;exitDy=0;entryX=0;entryY=0.5;entryDx=0;entryDy=0;entryPerimeter=0;strokeColor=#FF2617;fontStyle=1;strokeWidth=2;" parent="1" source="PHOMeu67KFhAlpCVhWh9-178" target="PHOMeu67KFhAlpCVhWh9-191" edge="1">
          <mxGeometry relative="1" as="geometry" />
        </mxCell>
        <mxCell id="PHOMeu67KFhAlpCVhWh9-183" value="NOTIFICATION GENERATOR" style="rounded=0;whiteSpace=wrap;html=1;fontStyle=1;strokeWidth=2;fontSize=11;fillColor=default;strokeColor=default;" parent="1" vertex="1">
          <mxGeometry x="950.25" y="899" width="189.75" height="31" as="geometry" />
        </mxCell>
        <mxCell id="6epNkEEEGoFFJ64g-tKx-2" value="" style="edgeStyle=orthogonalEdgeStyle;rounded=0;orthogonalLoop=1;jettySize=auto;html=1;exitX=0.5;exitY=1;exitDx=0;exitDy=0;strokeColor=#00CC00;fontStyle=1;strokeWidth=2;" parent="1" source="COeCRm81-DaRanPmge2q-4" target="6epNkEEEGoFFJ64g-tKx-1" edge="1">
          <mxGeometry relative="1" as="geometry">
            <mxPoint x="870" y="583" as="sourcePoint" />
            <mxPoint x="639" y="957" as="targetPoint" />
          </mxGeometry>
        </mxCell>
        <mxCell id="6epNkEEEGoFFJ64g-tKx-1" value="UPDATE APPOINTMENT DETAILS" style="rounded=0;whiteSpace=wrap;html=1;fontStyle=1;strokeWidth=2;fontSize=11;fillColor=default;strokeColor=default;" parent="1" vertex="1">
          <mxGeometry x="822.75" y="916.25" width="94.5" height="46.5" as="geometry" />
        </mxCell>
        <mxCell id="COeCRm81-DaRanPmge2q-8" value="STORE APPOINTMENT DETAILS IN RID ACCOUNT" style="rounded=0;whiteSpace=wrap;html=1;fontStyle=1;strokeWidth=2;shape=label;boundedLbl=1;backgroundOutline=1;size=15;" parent="1" vertex="1">
          <mxGeometry x="810" y="984" width="120" height="70" as="geometry" />
        </mxCell>
        <mxCell id="PHOMeu67KFhAlpCVhWh9-161" value="IDA" style="ellipse;whiteSpace=wrap;html=1;fillColor=#dae8fc;strokeColor=#6c8ebf;gradientColor=#7ea6e0;fontStyle=1" parent="1" vertex="1">
          <mxGeometry x="780" y="977" width="30" height="26" as="geometry" />
        </mxCell>
        <mxCell id="PHOMeu67KFhAlpCVhWh9-163" value="KM" style="ellipse;whiteSpace=wrap;html=1;fillColor=#dae8fc;strokeColor=#6c8ebf;gradientColor=#7ea6e0;fontStyle=1" parent="1" vertex="1">
          <mxGeometry x="780" y="1006" width="30" height="26" as="geometry" />
        </mxCell>
        <mxCell id="PHOMeu67KFhAlpCVhWh9-164" value="HSM" style="ellipse;whiteSpace=wrap;html=1;fillColor=#dae8fc;strokeColor=#6c8ebf;gradientColor=#7ea6e0;fontStyle=1" parent="1" vertex="1">
          <mxGeometry x="780" y="1035" width="30" height="26" as="geometry" />
        </mxCell>
        <mxCell id="PHOMeu67KFhAlpCVhWh9-140" value="" style="group" parent="1" vertex="1" connectable="0">
          <mxGeometry x="60" y="625" width="1240" height="60" as="geometry" />
        </mxCell>
        <mxCell id="PHOMeu67KFhAlpCVhWh9-141" value="" style="group" parent="PHOMeu67KFhAlpCVhWh9-140" vertex="1" connectable="0">
          <mxGeometry y="20" width="1240" height="40" as="geometry" />
        </mxCell>
        <mxCell id="PHOMeu67KFhAlpCVhWh9-143" value="&lt;b&gt;IDS, IPS, HONEYPOT&lt;/b&gt;" style="shape=label;whiteSpace=wrap;html=1;boundedLbl=1;backgroundOutline=1;darkOpacity=0.05;darkOpacity2=0.1;fillColor=#f0a30a;strokeColor=#BD7000;rounded=0;fontColor=#000000;" parent="PHOMeu67KFhAlpCVhWh9-141" vertex="1">
          <mxGeometry y="20" width="1240" height="20" as="geometry" />
        </mxCell>
        <mxCell id="PHOMeu67KFhAlpCVhWh9-142" value="&lt;b&gt;SINGLE/ DUAL FIREWALL&lt;/b&gt;" style="shape=label;whiteSpace=wrap;html=1;boundedLbl=1;backgroundOutline=1;darkOpacity=0.05;darkOpacity2=0.1;fillColor=#e51400;fontColor=#ffffff;strokeColor=#B20000;rounded=0;" parent="PHOMeu67KFhAlpCVhWh9-141" vertex="1">
          <mxGeometry width="1240" height="20" as="geometry" />
        </mxCell>
        <mxCell id="PHOMeu67KFhAlpCVhWh9-144" value="API/ HTTPS (SSL/TLS)" style="shape=label;whiteSpace=wrap;html=1;boundedLbl=1;backgroundOutline=1;darkOpacity=0.05;darkOpacity2=0.1;fillColor=#f8cecc;strokeColor=#b85450;rounded=0;fontStyle=1" parent="PHOMeu67KFhAlpCVhWh9-140" vertex="1">
          <mxGeometry width="1240" height="20" as="geometry" />
        </mxCell>
        <mxCell id="7K7I4FMeCgSviNryilll-1" style="edgeStyle=orthogonalEdgeStyle;rounded=0;orthogonalLoop=1;jettySize=auto;html=1;exitX=0.5;exitY=1;exitDx=0;exitDy=0;entryX=0.5;entryY=0;entryDx=0;entryDy=0;strokeColor=#00CC00;fontStyle=1;strokeWidth=2;" parent="1" source="PHOMeu67KFhAlpCVhWh9-87" target="PHOMeu67KFhAlpCVhWh9-165" edge="1">
          <mxGeometry relative="1" as="geometry" />
        </mxCell>
        <mxCell id="7K7I4FMeCgSviNryilll-2" style="edgeStyle=orthogonalEdgeStyle;rounded=0;orthogonalLoop=1;jettySize=auto;html=1;exitX=0.5;exitY=1;exitDx=0;exitDy=0;entryX=0.5;entryY=0;entryDx=0;entryDy=0;strokeColor=#00CC00;fontStyle=1;strokeWidth=2;" parent="1" source="PHOMeu67KFhAlpCVhWh9-174" target="COeCRm81-DaRanPmge2q-5" edge="1">
          <mxGeometry relative="1" as="geometry" />
        </mxCell>
        <mxCell id="PHOMeu67KFhAlpCVhWh9-146" value="" style="group" parent="1" vertex="1" connectable="0">
          <mxGeometry x="60" y="844" width="1240" height="60" as="geometry" />
        </mxCell>
        <mxCell id="PHOMeu67KFhAlpCVhWh9-147" value="" style="group" parent="PHOMeu67KFhAlpCVhWh9-146" vertex="1" connectable="0">
          <mxGeometry y="2" width="1240" height="40" as="geometry" />
        </mxCell>
        <mxCell id="PHOMeu67KFhAlpCVhWh9-148" value="&lt;b&gt;SINGLE/ DUAL FIREWALL&lt;/b&gt;" style="shape=label;whiteSpace=wrap;html=1;boundedLbl=1;backgroundOutline=1;darkOpacity=0.05;darkOpacity2=0.1;fillColor=#e51400;fontColor=#ffffff;strokeColor=#B20000;rounded=0;" parent="PHOMeu67KFhAlpCVhWh9-147" vertex="1">
          <mxGeometry y="1" width="1240" height="20" as="geometry" />
        </mxCell>
        <mxCell id="PHOMeu67KFhAlpCVhWh9-149" value="&lt;b&gt;IDS, IPS, HONEYPOT&lt;/b&gt;" style="shape=label;whiteSpace=wrap;html=1;boundedLbl=1;backgroundOutline=1;darkOpacity=0.05;darkOpacity2=0.1;fillColor=#f0a30a;strokeColor=#BD7000;rounded=0;fontColor=#000000;" parent="PHOMeu67KFhAlpCVhWh9-147" vertex="1">
          <mxGeometry y="20" width="1240" height="20" as="geometry" />
        </mxCell>
        <mxCell id="PHOMeu67KFhAlpCVhWh9-150" value="API/ HTTPS (SSL/TLS)" style="shape=label;whiteSpace=wrap;html=1;boundedLbl=1;backgroundOutline=1;darkOpacity=0.05;darkOpacity2=0.1;fillColor=#f8cecc;strokeColor=#b85450;rounded=0;fontStyle=1" parent="PHOMeu67KFhAlpCVhWh9-146" vertex="1">
          <mxGeometry y="-18" width="1240" height="20" as="geometry" />
        </mxCell>
        <mxCell id="RCdcv-DXNsg67DIGGfdO-2" value="&lt;div style=&quot;font-size: 18px;&quot;&gt;&lt;font style=&quot;font-size: 18px;&quot;&gt;&lt;b style=&quot;font-size: 18px;&quot;&gt;Purpose:&lt;/b&gt;&lt;/font&gt;&lt;/div&gt;&lt;div style=&quot;font-size: 18px;&quot;&gt;&lt;div&gt;This SOP describes the steps for scheduling an appointment for offline biometric collection.&lt;/div&gt;&lt;div&gt;It involves submitting acknowledgment letters, checking the availability of centers and times, confirming appointments, and handling potential errors.&lt;/div&gt;&lt;/div&gt;" style="whiteSpace=wrap;html=1;align=left;rounded=0;strokeWidth=2;verticalAlign=middle;fontFamily=Helvetica;fontSize=18;fontStyle=0;" vertex="1" parent="1">
          <mxGeometry x="40" y="230" width="1280" height="70" as="geometry" />
        </mxCell>
      </root>
    </mxGraphModel>
  </diagram>
</mxfile>
